{"title":"Attack 26-11 2013 Scam (IcTv) - Hindi","uid":8207046,"size":608155648,"categoryP":"video","categoryS":"movies","magnet":"?xt=urn:btih:1d60c35d501dbb6aff699f252b76de41ba23eeee&amp;dn=Attack+26-11+2013+Scam+%28IcTv%29+-+Hindi&amp;tr=udp%3A%2F%2Ftracker.openbittorrent.com%3A80&amp;tr=udp%3A%2F%2Fopen.demonii.com%3A1337&amp;tr=udp%3A%2F%2Ftracker.coppersurfer.tk%3A6969&amp;tr=udp%3A%2F%2Fexodus.desync.com%3A6969","seeders":1,"leechers":0,"uploader":"SJonam","files":7,"time":1362151824,"description":" &lt;a href=&quot;http://desibbrg.org/images/66952052392581364616.gif&quot; rel=&quot;nofollow&quot; target=&quot;_NEW&quot;&gt;http://desibbrg.org/images/66952052392581364616.gif&lt;/a&gt; &lt;a href=&quot;\nhttp://desibbrg.org/images/91036719678062772937.jpg&quot; rel=&quot;nofollow&quot; target=&quot;_NEW&quot;&gt;\nhttp://desibbrg.org/images/91036719678062772937.jpg&lt;/a&gt; &lt;a href=&quot;\nhttp://desibbrg.org/images/01310758480985564485.jpg&quot; rel=&quot;nofollow&quot; target=&quot;_NEW&quot;&gt;\nhttp://desibbrg.org/images/01310758480985564485.jpg&lt;/a&gt; &lt;a href=&quot;\nhttp://desibbrg.org/images/86397559098834966060.jpg&quot; rel=&quot;nofollow&quot; target=&quot;_NEW&quot;&gt;\nhttp://desibbrg.org/images/86397559098834966060.jpg&lt;/a&gt; &lt;a href=&quot;\nhttp://desibbrg.org/images/95283253403473602404.jpg&quot; rel=&quot;nofollow&quot; target=&quot;_NEW&quot;&gt;\nhttp://desibbrg.org/images/95283253403473602404.jpg&lt;/a&gt; &lt;a href=&quot;\nhttp://desibbrg.org/images/96827981579143403622.jpg&quot; rel=&quot;nofollow&quot; target=&quot;_NEW&quot;&gt;\nhttp://desibbrg.org/images/96827981579143403622.jpg&lt;/a&gt;\n\nMedia Info - \nGeneral\nFormat : MPEG-PS\nFile size : 580 MiB\nDuration : 1h 41mn\nOverall bit rate mode : Variable\nOverall bit rate : 798 Kbps\n\nVideo\nID : 224 (0xE0)\nFormat : MPEG Video\nFormat version : Version 2\nFormat profile : Main@Main\nFormat settings, BVOP : Yes\nFormat settings, Matrix : Default\nFormat settings, GOP : M=3, N=13\nDuration : 1h 41mn\nBit rate mode : Variable\nBit rate : 655 Kbps\nMaximum bit rate : 9 672 Kbps\nWidth : 352 pixels\nHeight : 288 pixels\nDisplay aspect ratio : 4:3\nFrame rate : 25.000 fps\nStandard : PAL\nColor space : YUV\nChroma subsampling : 4:2:0\nBit depth : 8 bits\nScan type : Progressive\nCompression mode : Lossy\nBits/(Pixel*Frame) : 0.258\nStream size : 475 MiB (82%)\n\nAudio\nID : 192 (0xC0)\nFormat : MPEG Audio\nFormat version : Version 1\nFormat profile : Layer 2\nDuration : 1h 41mn\nBit rate mode : Constant\nBit rate : 128 Kbps\nChannel(s) : 2 channels\nSampling rate : 48.0 KHz\nCompression mode : Lossy\nStream size : 92.9 MiB (16%)\n\nRipper : Master Mind\n\nSeeding 24x7... Extreme Seeding...\n\n\nEnjoy!\n","torrent":{"xt":"urn:btih:1d60c35d501dbb6aff699f252b76de41ba23eeee","amp;dn":"Attack+26-11+2013+Scam+%28IcTv%29+-+Hindi","amp;tr":["udp%3A%2F%2Ftracker.openbittorrent.com%3A80","udp%3A%2F%2Fopen.demonii.com%3A1337","udp%3A%2F%2Ftracker.coppersurfer.tk%3A6969","udp%3A%2F%2Fexodus.desync.com%3A6969"],"infoHash":"1d60c35d501dbb6aff699f252b76de41ba23eeee","infoHashBuffer":{"type":"Buffer","data":[29,96,195,93,80,29,187,106,255,105,159,37,43,118,222,65,186,35,238,238]},"announce":[],"urlList":[]}}